<?xml version="1.0" encoding="UTF-8"?>
<svg id="Layer_2" data-name="Layer 2" xmlns="http://www.w3.org/2000/svg" width="108.304" height="67.523"
     viewBox="0 0 108.31 34.99">
    <g id="Layer_1-2" data-name="Layer 1">
        <g id="Logo">
            <path id="Path_1" data-name="Path 1"
                  d="m61.6,34.99c-.61,0-1.19-.24-1.62-.67-.2-.21-.37-.46-.47-.74-.11-.29-.17-.6-.17-.91h0c0-.32.06-.63.17-.91.11-.28.27-.53.47-.74.2-.21.45-.38.72-.5.29-.12.6-.19.91-.18.19,0,.37.02.56.05.16.03.31.08.46.14.14.06.27.14.39.23.12.09.24.19.35.29l-.35.37c-.19-.17-.4-.32-.62-.44-.47-.22-1.01-.23-1.49-.03-.21.09-.4.23-.55.39-.16.17-.28.37-.37.59-.09.23-.13.48-.13.73h0c0,.26.04.51.13.74.08.22.21.42.37.59.16.17.34.3.55.4.22.1.45.15.69.14.28,0,.55-.05.8-.17.24-.13.46-.29.66-.48l.33.33c-.11.12-.23.23-.36.33-.13.1-.26.18-.41.25-.15.07-.31.12-.47.16-.18.04-.37.06-.56.06m4.62-4.59h3.26v.46h-2.75v1.55h2.46v.46h-2.46v1.58h2.78v.46h-3.29v-4.51Zm6.25,0h.48l2.84,3.61v-3.61h.5v4.51h-.41l-2.91-3.7v3.7h-.5v-4.51Zm8.21.47h-1.51v-.47h3.54v.47h-1.51v4.04h-.51v-4.04Zm4.92-.47h3.26v.46h-2.75v1.55h2.46v.46h-2.46v1.58h2.78v.46h-3.29v-4.51Zm6.25,0h1.94c.25,0,.51.04.74.12.2.07.39.18.54.33.11.11.2.25.26.39.06.16.09.33.09.5h0c0,.18-.03.35-.09.51-.06.15-.14.28-.25.39-.11.11-.25.2-.39.27-.16.07-.32.12-.49.15l1.39,1.84h-.62l-1.31-1.75h-1.29v1.75h-.51v-4.51Zm1.9,2.3c.16,0,.31-.02.46-.06.13-.04.26-.1.37-.18.1-.08.18-.18.24-.29.06-.12.09-.26.09-.39h0c.01-.27-.1-.51-.3-.67-.25-.17-.55-.25-.85-.23h-1.4v1.83h1.39Zm-84.45-1.83h-1.51v-.47h3.54v.47h-1.51v4.04h-.51v-4.04Zm4.92-.47h1.94c.25,0,.5.04.74.12.2.07.39.18.54.33.11.11.2.25.26.39.06.16.09.33.09.5h0c0,.18-.03.35-.09.51-.06.15-.14.28-.25.39-.11.11-.25.2-.39.27-.16.07-.32.12-.49.15l1.39,1.84h-.62l-1.31-1.75h-1.29v1.75h-.51v-4.51Zm1.9,2.3c.16,0,.31-.02.46-.06.13-.04.26-.1.37-.18.1-.08.18-.18.24-.29.06-.12.09-.25.09-.39h0c.01-.27-.1-.51-.3-.67-.25-.17-.55-.25-.85-.23h-1.4v1.83h1.39Zm6.36-2.34h.48l2.06,4.54h-.55l-.53-1.19h-2.45l-.54,1.19h-.52l2.05-4.54Zm1.26,2.89l-1.02-2.3-1.03,2.3h2.05Zm4.14-2.86h.51v4.51h-.51v-4.51Zm3.76,0h.48l2.84,3.61v-3.61h.5v4.51h-.41l-2.91-3.7v3.7h-.5v-4.51Zm7.07,0h.51v4.51h-.51v-4.51Zm3.76,0h.48l2.84,3.61v-3.61h.5v4.51h-.41l-2.91-3.7v3.7h-.5v-4.51Zm9.12,4.59c-.33,0-.65-.06-.96-.18-.55-.23-.98-.67-1.18-1.23-.11-.29-.16-.6-.16-.9h0c0-.32.05-.62.16-.9.11-.27.26-.53.46-.74.42-.45,1.02-.71,1.64-.7.17,0,.35.01.52.04.15.02.3.06.44.12.13.05.26.11.38.19.12.08.24.16.35.25l-.33.39c-.08-.08-.18-.15-.27-.21-.1-.06-.2-.12-.31-.16-.12-.05-.24-.08-.36-.11-.14-.03-.29-.04-.43-.04-.24,0-.47.05-.69.15-.21.1-.39.23-.54.4-.15.17-.27.37-.36.59-.09.23-.13.47-.13.71h0c0,.27.04.52.12.76.08.22.2.42.36.59.16.17.35.3.56.39.23.1.49.14.74.14.25,0,.5-.04.73-.13.21-.08.4-.18.57-.32v-1.12h-1.37v-.46h1.86v1.8c-.23.2-.49.37-.78.49-.33.14-.68.21-1.04.2"
                  fill="#1d1d1b" stroke-width="0"/>
            <path id="Path_2" data-name="Path 2"
                  d="m0,0h5.4l22.72,23.52V0h3.62v26.78h-5.4L3.62,3.25v23.52H0V0Zm76.72,16.9h3.4v2.11c0,4.22,1.04,5.11,5.7,5.11h12.94c4.18,0,5.92-.7,5.92-4.14V0h3.62v19.27c0,6.18-2.66,7.8-9.24,7.8h-13.5c-6.36,0-8.84-2.18-8.84-7.21v-2.96Z"
                  fill="#1d1d1b" stroke-width="0"/>
            <path id="Path_3" data-name="Path 3"
                  d="m54.19,2.96l13.16,23.82h4.11L56.45,0h-4.51l-15,26.78h4.1L54.19,2.96Z" fill="#1d1d1b"
                  stroke-width="0"/>
        </g>
    </g>
</svg>